<svg width="500" height="200" xmlns="http://www.w3.org/2000/svg">
  <style>
    .lang-name { font: 12px sans-serif; fill: #666; }
    .lang-bar { fill: #58a6ff; }
    .percentage { font: 11px sans-serif; fill: #666; }
  </style>
  <text x="5" y="20" class="lang-name">PHP</text>
  <rect x="90" y="8" width="92.6470588235294" height="18" class="lang-bar" rx="3"/>
  <text x="450" y="20" class="percentage">26.5%</text>
  <text x="5" y="43" class="lang-name">JavaScript</text>
  <rect x="90" y="31" width="72.05882352941177" height="18" class="lang-bar" rx="3"/>
  <text x="450" y="43" class="percentage">20.6%</text>
  <text x="5" y="66" class="lang-name">Python</text>
  <rect x="90" y="54" width="57.6470588235294" height="18" class="lang-bar" rx="3"/>
  <text x="450" y="66" class="percentage">16.5%</text>
  <text x="5" y="89" class="lang-name">TypeScript</text>
  <rect x="90" y="77" width="45.294117647058826" height="18" class="lang-bar" rx="3"/>
  <text x="450" y="89" class="percentage">12.9%</text>
  <text x="5" y="112" class="lang-name">CSS</text>
  <rect x="90" y="100" width="30.88235294117647" height="18" class="lang-bar" rx="3"/>
  <text x="450" y="112" class="percentage">8.8%</text>
  <text x="5" y="135" class="lang-name">HTML</text>
  <rect x="90" y="123" width="24.705882352941178" height="18" class="lang-bar" rx="3"/>
  <text x="450" y="135" class="percentage">7.1%</text>
  <text x="5" y="158" class="lang-name">Java</text>
  <rect x="90" y="146" width="16.470588235294116" height="18" class="lang-bar" rx="3"/>
  <text x="450" y="158" class="percentage">4.7%</text>
  <text x="5" y="181" class="lang-name">Shell</text>
  <rect x="90" y="169" width="10.294117647058822" height="18" class="lang-bar" rx="3"/>
  <text x="450" y="181" class="percentage">2.9%</text>
</svg>