<svg width="500" height="200" xmlns="http://www.w3.org/2000/svg">
  <style>
    .lang-name { font: 12px sans-serif; fill: #666; }
    .lang-bar { fill: #58a6ff; }
    .percentage { font: 11px sans-serif; fill: #666; }
  </style>
  <text x="5" y="20" class="lang-name">C</text>
  <rect x="90" y="8" width="77.58757909304092" height="18" class="lang-bar" rx="3"/>
  <text x="450" y="20" class="percentage">22.2%</text>
  <text x="5" y="43" class="lang-name">TeX</text>
  <rect x="90" y="31" width="57.74476420087785" height="18" class="lang-bar" rx="3"/>
  <text x="450" y="43" class="percentage">16.5%</text>
  <text x="5" y="66" class="lang-name">JavaScript</text>
  <rect x="90" y="54" width="51.18743414342225" height="18" class="lang-bar" rx="3"/>
  <text x="450" y="66" class="percentage">14.6%</text>
  <text x="5" y="89" class="lang-name">Rust</text>
  <rect x="90" y="77" width="33.22851975720326" height="18" class="lang-bar" rx="3"/>
  <text x="450" y="89" class="percentage">9.5%</text>
  <text x="5" y="112" class="lang-name">Handlebars</text>
  <rect x="90" y="100" width="31.91482186495098" height="18" class="lang-bar" rx="3"/>
  <text x="450" y="112" class="percentage">9.1%</text>
  <text x="5" y="135" class="lang-name">HTML</text>
  <rect x="90" y="123" width="29.076577729692872" height="18" class="lang-bar" rx="3"/>
  <text x="450" y="135" class="percentage">8.3%</text>
  <text x="5" y="158" class="lang-name">Vue</text>
  <rect x="90" y="146" width="20.056453093868058" height="18" class="lang-bar" rx="3"/>
  <text x="450" y="158" class="percentage">5.7%</text>
  <text x="5" y="181" class="lang-name">Kotlin</text>
  <rect x="90" y="169" width="11.267564181134292" height="18" class="lang-bar" rx="3"/>
  <text x="450" y="181" class="percentage">3.2%</text>
</svg>